
<svg width="50px" height="47px" viewBox="0 0 50 47" version="1.1" xmlns="http://www.w3.org/2000/svg" xmlns:xlink="http://www.w3.org/1999/xlink">
	<!-- Generator: Sketch 48.1 (47250) - http://www.bohemiancoding.com/sketch -->
	<desc>Created with Sketch.</desc>
	<defs></defs>
	<g id="do" stroke="none" stroke-width="1" fill="none" fill-rule="evenodd">
		<g id="9-Create" transform="translate(-619.000000, -306.000000)">
			<g id="add" transform="translate(589.000000, 275.000000)">
				<g id="group" transform="translate(30.000000, 30.000000)">
					<g transform="translate(0.000000, 1.000000)" stroke="#FFFFFF" stroke-width="2">
						<path d="M17.9519186,1.4375 L13.4519186,6.54861111 L5,6.54861111 C2.80726383,6.54861111 1,8.39603636 1,10.6597222 L1,41.3263889 C1,43.5900748 2.80726383,45.4375 5,45.4375 L45,45.4375 C47.1927362,45.4375 49,43.5900748 49,41.3263889 L49,10.6597222 C49,8.39603636 47.1927362,6.54861111 45,6.54861111 L36.5480814,6.54861111 L32.0480814,1.4375 L17.9519186,1.4375 Z" id="shape"></path>
						<path d="M25.0727273,33.5349359 C29.5604425,33.5349359 33.0727273,30.0226511 33.0727273,25.5349359 C33.0727273,21.0472206 29.5604425,17.5349359 25.0727273,17.5349359 C20.585012,17.5349359 17.0727273,21.0472206 17.0727273,25.5349359 C17.0727273,30.0226511 20.585012,33.5349359 25.0727273,33.5349359 Z" id="path"></path>
					</g>
					<rect id="bounds" x="0" y="0" width="50" height="50"></rect>
				</g>
			</g>
		</g>
	</g>
</svg>